<svg width="80" height="33" viewBox="0 0 80 33" fill="none" xmlns="http://www.w3.org/2000/svg">
<path d="M58.3356 6.80664H54.0262C53.7255 6.80664 53.4859 7.05242 53.4859 7.35087V17.8405C53.4859 19.2888 53.1809 20.3992 52.5665 21.1717C51.9565 21.9441 51.0894 22.3304 49.9608 22.3304C48.9325 22.3304 48.1918 21.9749 47.7342 21.2639C47.2767 20.5528 47.0501 19.46 47.0501 17.9897V7.35087C47.0501 7.05242 46.8105 6.80664 46.5098 6.80664H42.2005C41.8998 6.80664 41.6602 7.05242 41.6602 7.35087V19.2888C41.6602 21.5052 42.2179 23.2872 43.329 24.6258C44.4445 25.9644 46.0567 26.6315 48.1613 26.6315C49.3334 26.6315 50.3878 26.3989 51.3247 25.9293C52.2571 25.4597 52.9761 24.7531 53.4815 23.8138V31.9553C53.4815 32.2538 53.7212 32.4996 54.0218 32.4996H58.3312C58.6275 32.4996 58.8715 32.2582 58.8715 31.9553V7.35087C58.8759 7.04804 58.6319 6.80664 58.3356 6.80664Z" fill="black"/>
<path d="M17.8518 11.8861V26.1984H12.4618V14.8749C12.4618 13.3695 11.2984 12.0748 9.80381 12.0309C9.44216 12.0221 9.10229 12.0792 8.7842 12.1933C8.6622 12.2372 8.52276 12.2591 8.37897 12.2591C7.62516 12.2591 7.01514 11.6403 7.01514 10.8854C7.01514 10.7888 7.01949 10.6967 7.04128 10.6089C7.05435 10.565 7.05871 10.5167 7.07178 10.4728C7.69052 8.11155 9.82124 6.36914 12.3616 6.36914H12.4531C15.4509 6.4262 17.8518 8.87523 17.8518 11.8861Z" fill="black"/>
<path d="M10.8192 17.7925C10.8192 17.889 10.8148 17.9812 10.793 18.069C10.78 18.1129 10.7756 18.1611 10.7625 18.205C10.6841 18.4947 10.5883 18.7712 10.475 19.0302C10.4488 19.0828 10.4314 19.1355 10.4052 19.1794C10.3617 19.2716 10.3137 19.3637 10.2615 19.4559C10.183 19.6007 10.1002 19.7368 10.0131 19.8772C9.93466 19.987 9.85623 20.0923 9.77344 20.1976C9.53379 20.5136 9.25928 20.7945 8.95427 21.0447C8.88891 21.0974 8.82355 21.1544 8.75819 21.2027C8.46625 21.4265 8.15252 21.6153 7.82137 21.7733C7.75601 21.804 7.69065 21.8391 7.62093 21.8654C7.37257 21.9708 7.11112 22.0629 6.84533 22.1332C6.72768 22.1595 6.60568 22.1858 6.48803 22.2034C6.43138 22.2165 6.37038 22.2297 6.31374 22.2341C6.19609 22.2517 6.07409 22.2648 5.94772 22.278H5.94337C5.79522 22.2912 5.63836 22.2955 5.48149 22.2955H5.38999C2.40088 22.2429 0 19.7938 0 16.783V0.5H5.38999V13.8731C5.38999 15.3961 6.61439 16.6382 8.12638 16.6382C8.20917 16.6382 8.29631 16.6338 8.37474 16.625C8.45318 16.6206 8.53161 16.6119 8.61004 16.5943C8.65361 16.5899 8.7059 16.5811 8.75383 16.568C8.81919 16.5548 8.87584 16.5372 8.9412 16.5153C8.98041 16.5021 9.02398 16.489 9.0632 16.4758C9.1852 16.4319 9.32464 16.41 9.46843 16.41C10.2135 16.4187 10.8192 17.0376 10.8192 17.7925Z" fill="black"/>
<path d="M77.8868 6.8056C76.3313 6.8056 75.0154 7.86334 74.6145 9.30292V9.55748C74.6014 9.53114 74.5883 9.50481 74.5709 9.47847C74.048 8.50413 73.3029 7.74484 72.3313 7.205C71.3378 6.65199 70.17 6.37109 68.828 6.37109C67.1243 6.37109 65.682 6.81438 64.4968 7.69217C63.3116 8.57435 62.4184 9.78131 61.8214 11.3131C61.2245 12.8448 60.9238 14.574 60.9238 16.5052C60.9238 18.4627 61.2288 20.2007 61.8389 21.7368C62.4532 23.2686 63.3421 24.4667 64.5143 25.3401C65.6907 26.2092 67.1156 26.6437 68.7931 26.6437C70.1831 26.6437 71.3814 26.354 72.401 25.7747C73.4206 25.1953 74.1918 24.3746 74.7191 23.3125L74.8018 25.4938C74.8149 25.8932 75.1417 26.2048 75.5382 26.2048H79.2637C79.669 26.2048 80.0001 25.8712 80.0001 25.463V9.00008C80.0001 7.82384 79.0764 6.81877 77.9086 6.80999C77.9042 6.8056 77.8955 6.8056 77.8868 6.8056ZM73.6472 20.8459C72.9979 21.9299 71.9827 22.4742 70.5927 22.4742C69.2986 22.4742 68.2877 21.9036 67.56 20.7537C66.828 19.6082 66.4663 18.1905 66.4663 16.5008C66.4663 14.7672 66.8193 13.3364 67.5252 12.2128C68.231 11.0936 69.255 10.5318 70.597 10.5318C71.987 10.5318 73.0023 11.0629 73.6515 12.125C74.2964 13.1871 74.6232 14.6487 74.6232 16.5008C74.6188 18.3134 74.292 19.7618 73.6472 20.8459Z" fill="black"/>
<path d="M37.2418 6.8056C35.6862 6.8056 34.3703 7.86334 33.9695 9.30292V9.55748C33.9564 9.53114 33.9433 9.50481 33.9259 9.47847C33.403 8.50413 32.6579 7.74484 31.6862 7.205C30.6928 6.65199 29.525 6.37109 28.183 6.37109C26.4793 6.37109 25.037 6.81438 23.8518 7.69217C22.6666 8.57435 21.7734 9.78131 21.1764 11.3131C20.5795 12.8448 20.2788 14.574 20.2788 16.5052C20.2788 18.4627 20.5838 20.2007 21.1938 21.7368C21.8082 23.2686 22.6971 24.4667 23.8692 25.3401C25.0457 26.2092 26.4705 26.6437 28.1481 26.6437C29.5381 26.6437 30.7363 26.354 31.756 25.7747C32.7756 25.1953 33.5468 24.3746 34.074 23.3125L34.1568 25.4938C34.1699 25.8932 34.4967 26.2048 34.8932 26.2048H38.6187C39.0239 26.2048 39.3551 25.8712 39.3551 25.463V9.00008C39.3551 7.82384 38.4313 6.81877 37.2636 6.80999C37.2549 6.8056 37.2462 6.8056 37.2418 6.8056ZM32.9978 20.8459C32.3485 21.9299 31.3333 22.4742 29.9433 22.4742C28.6492 22.4742 27.6383 21.9036 26.9106 20.7537C26.1786 19.6082 25.8169 18.1905 25.8169 16.5008C25.8169 14.7672 26.1699 13.3364 26.8758 12.2128C27.5817 11.0936 28.6056 10.5318 29.9477 10.5318C31.3377 10.5318 32.3529 11.0629 33.0021 12.125C33.647 13.1871 33.9738 14.6487 33.9738 16.5008C33.9695 18.3134 33.6427 19.7618 32.9978 20.8459Z" fill="black"/>
</svg>
