<svg width="153" height="191" viewBox="0 0 153 191" fill="none" xmlns="http://www.w3.org/2000/svg">
<g opacity="0.08">
<path d="M168.878 36.2894C168.977 35.9402 168.801 35.3524 168.754 34.8821C168.563 32.7422 168.259 32.119 167.65 32.5683C167.516 32.6634 167.334 32.5769 167.18 32.5746C166.481 31.4352 166.292 33.0919 165.669 32.3718C165.636 32.6149 165.511 32.8361 165.32 32.9897C165.128 33.1432 164.885 33.2175 164.641 33.197C162.949 33.296 161.266 33.5231 159.608 33.8763C158.683 34.1557 157.783 34.5126 156.918 34.9433C157.094 34.0419 157.335 33.1903 157.569 32.3337C158.156 30.1921 158.914 28.0975 159.683 26.0012C159.841 25.5731 160.673 25.4168 159.541 24.4256C159.169 24.1366 158.763 23.8923 158.334 23.698C156.496 22.5867 155.817 22.4453 155.831 23.1793C155.835 23.3377 155.657 23.4094 155.562 23.5344C154.242 23.3934 155.472 24.5004 154.533 24.5656C155.047 25.1715 154.803 25.4937 154.614 25.8261C153.738 27.1774 152.984 28.6037 152.361 30.0881C151.907 31.8923 151.593 33.7287 151.42 35.5811C151.312 36.2436 151.197 36.9011 151.082 37.5587C150.209 37.9326 149.35 38.3165 148.53 38.7303C146.487 39.7902 144.311 40.6155 142.548 42.1665C141.354 43.2383 139.769 43.652 138.343 44.3617C137.748 44.656 138.005 45.8331 139.087 47.4788C140.168 49.1245 140.613 48.7273 140.962 48.6084C143.096 47.8393 145.145 46.8533 147.077 45.6659C147.932 45.2061 148.824 44.8058 149.713 44.4237C149.773 44.3448 149.795 44.2064 149.892 44.187L150.37 43.9797C150.216 45.2936 150.256 46.6227 150.486 47.9253C150.815 49.4044 150.393 50.9051 150.325 52.4156C150.294 53.0438 151.456 53.3539 153.388 53.1924C155.32 53.0308 155.212 52.5042 155.294 52.1631C155.649 50.1072 155.804 48.0216 155.756 45.9358C155.799 45.0443 155.888 44.1556 156.023 43.2733C155.957 43.2235 155.882 43.1045 155.891 43.0386C155.957 42.4583 156.049 41.8864 156.154 41.3245C156.269 41.2289 156.39 41.1412 156.518 41.0621C157.833 40.3787 159.215 39.8303 160.641 39.4256C162.922 38.6388 165.247 37.999 167.575 37.3411C168.072 37.2311 168.728 37.7995 168.878 36.2894Z" fill="#767680"/>
<path d="M174.104 83.4993C174.019 81.1808 173.718 78.8752 173.203 76.613C173.037 75.6293 172.946 74.6294 172.873 73.6329C172.794 73.5732 172.689 73.4936 172.687 73.3996C172.525 71.7562 172.457 70.1231 172.397 68.4538C172.357 68.0232 172.282 67.5966 172.173 67.178C173.578 66.9482 174.994 66.7579 176.413 66.5909C176.987 66.529 177.632 67.1932 178.1 65.7273C178.273 65.4032 178.203 64.7711 178.235 64.3193C178.439 62.1778 178.211 61.5089 177.401 61.8682C177.229 61.945 177.037 61.8305 176.851 61.8033C176.246 60.5802 175.709 62.1909 175.098 61.3867C174.984 61.6395 174.787 61.8457 174.54 61.971C174.293 62.0962 174.01 62.133 173.739 62.0751C173.092 62.0822 172.413 62.1057 171.778 62.07C171.79 61.821 171.798 61.5787 171.799 61.3313C171.863 58.856 172.091 56.3813 172.303 53.9149C172.356 53.4072 173.127 52.9768 171.777 52.2865C171.342 52.0991 170.885 51.9685 170.416 51.898C168.356 51.3004 167.697 51.3915 167.857 52.1228C167.91 52.2863 167.759 52.4309 167.697 52.5807C166.385 52.839 167.859 53.6237 166.965 53.9711C167.623 54.4687 167.46 54.8622 167.367 55.2577C166.859 56.9325 166.48 58.6441 166.234 60.3771C166.194 61.1524 166.207 61.9294 166.273 62.7028C164.501 63.213 162.806 63.9776 161.085 64.5986C158.766 65.4065 156.489 66.3308 154.263 67.3681C151.823 68.6242 149.287 69.6937 147.234 71.5733C145.858 72.8588 144.057 73.5437 142.462 74.5709C141.803 74.992 142.109 76.1857 143.32 77.7016C144.531 79.2176 145.047 78.7399 145.429 78.5634C147.76 77.3801 150.028 76.0758 152.223 74.6558C153.199 74.1013 154.205 73.5986 155.234 73.1497C155.299 73.0642 155.332 72.9243 155.428 72.8933C157.081 72.0758 158.865 71.4402 160.6 70.7879C161.059 70.5971 161.504 70.3742 161.932 70.1208C162.431 70.1163 162.765 69.7169 163.206 69.5028C164.345 68.9851 165.535 68.5856 166.755 68.3108C166.828 69.8136 166.901 71.3165 167.114 72.8116C167.434 75.122 167.53 77.5633 168.453 79.802C169.099 81.3254 168.991 83.0123 169.24 84.6379C169.339 85.3129 170.541 85.4467 172.405 84.9649C174.269 84.4831 174.109 83.8754 174.104 83.4993Z" fill="#767680"/>
<path d="M100.079 93.8331C99.2514 91.4282 98.1656 89.2827 97.3015 86.9535C97.109 86.4563 96.9793 85.9445 96.8314 85.4292C96.6835 84.914 96.5719 84.4054 96.4637 83.8789C96.3782 83.8142 96.2729 83.7346 96.2436 83.6503C95.9686 82.4574 95.7679 81.2486 95.6424 80.0308C96.143 79.8202 96.6452 79.6212 97.1409 79.4172C99.8078 78.2709 102.488 77.1757 105.12 75.9517C105.657 75.7066 106.525 76.1045 106.477 74.5688C106.533 74.2079 106.245 73.6591 106.117 73.2001C105.598 71.1527 105.124 70.5767 104.542 71.1812C104.433 71.3258 104.2 71.2638 104.022 71.2944C103.093 70.3223 103.127 72.0129 102.326 71.4174C102.305 71.6836 102.19 71.9337 102.002 72.1228C101.813 72.3118 101.564 72.4274 101.297 72.4487C99.466 72.9966 97.5631 73.2837 95.7658 73.9505C95.4586 74.0696 95.1611 74.2168 94.8869 74.3195C94.8593 73.9716 94.8542 73.6223 94.8716 73.2738C94.8998 72.4575 94.9693 71.6414 95.0751 70.832C95.3876 68.1888 95.9719 65.5849 96.8187 63.0616C97.0057 62.5412 97.8644 62.2809 96.7309 61.237C96.3635 60.9358 95.9546 60.6891 95.5169 60.5045C93.6778 59.3817 92.9822 59.2896 92.9536 60.1883C92.9445 60.3779 92.7347 60.4777 92.6597 60.6588C91.3072 60.6695 92.5078 61.8571 91.5749 62.0923C92.1031 62.7608 91.839 63.1918 91.6523 63.6297L90.4727 66.4185C90.1065 67.3684 89.8306 68.3507 89.6486 69.3524C89.2642 71.6779 89.5856 74.041 89.7043 76.3439L89.7544 76.961C87.6557 77.9168 85.4737 78.6958 83.3668 79.6351C80.9839 80.7068 78.4706 81.4315 76.2313 82.8601C74.7015 83.8431 72.8648 84.0974 71.1341 84.6078C70.4208 84.8125 70.3973 86.0461 71.1069 87.8551C71.8166 89.6642 72.4645 89.3272 72.8904 89.2565C75.576 88.7169 78.1884 87.8612 80.6728 86.7072C81.7567 86.2451 82.87 85.8672 83.9784 85.4547C84.0431 85.3692 84.1277 85.2574 84.1775 85.1917C85.9947 84.4985 87.8316 83.8203 89.6356 83.1173C89.9188 83.0026 90.191 82.8624 90.4489 82.6985C90.5168 83.0188 90.5681 83.3473 90.6476 83.6659C91.3125 86.2994 91.9027 89.0315 93.4596 91.3472C93.9628 92.1384 94.3883 92.9765 94.7302 93.8496C95.0613 94.737 95.439 95.6063 95.862 96.4538C96.2251 97.1629 97.4382 96.9537 99.0411 95.8605C100.644 94.7673 100.208 94.2097 100.079 93.8331Z" fill="#767680"/>
<path d="M44.1298 101.01C43.5538 98.9399 42.865 96.9031 42.0664 94.9084C41.7798 94.0318 41.5517 93.1371 41.3836 92.2303C41.3047 92.1706 41.206 92.0959 41.16 92.0611L41.0422 91.4652C43.7599 90.771 46.5197 90.2535 49.2925 89.7871C49.8916 89.6924 50.608 90.3172 51.0399 88.8446C51.2046 88.5039 51.0737 87.8981 51.084 87.4198C51.1691 85.2711 50.8849 84.6218 50.0816 85.0274C49.9048 85.1107 49.7023 85.0092 49.5061 84.9952C48.8234 83.8064 48.3612 85.4422 47.6933 84.6575C47.5828 84.9185 47.3887 85.1354 47.1415 85.2741C46.8943 85.4128 46.608 85.4653 46.3277 85.4235C45.2671 85.4585 44.269 85.5203 43.2299 85.5405C42.2108 85.5857 41.1965 85.7065 40.1953 85.9018C40.132 85.6574 39.9928 85.4177 39.9461 85.1652C39.7103 83.7668 39.6676 82.3426 39.8192 80.9326C39.9532 78.6254 40.2737 76.3328 40.7772 74.0773C40.8897 73.6143 41.6925 73.3325 40.4443 72.4811C40.042 72.2328 39.6094 72.0374 39.1571 71.8999C37.1966 71.0058 36.5224 70.9403 36.6047 71.7471C36.6221 71.9154 36.4566 72.0383 36.3752 72.1732C35.0405 72.2698 36.3971 73.2239 35.4823 73.4624C36.0901 74.0258 35.8774 74.4025 35.7487 74.7912C35.4616 75.608 35.1744 76.4248 34.9135 77.2616C34.6318 78.0908 34.4347 78.9465 34.3253 79.8155C34.0989 81.8365 34.5206 83.8621 34.6951 85.8452L34.8965 87.7246C34.4058 87.922 33.9086 88.1145 33.4278 88.2988C31.0556 89.1924 28.6509 89.9787 26.3571 91.0557C23.8319 92.2472 21.1655 93.2698 18.9412 95.0613C17.44 96.2935 15.5506 96.8906 13.8429 97.8217C13.1304 98.2029 13.3231 99.4242 14.4113 101.034C15.4995 102.643 16.0671 102.194 16.4751 102.037C19.0174 100.956 21.4903 99.7193 23.8798 98.3333C24.9344 97.7869 26.0152 97.3017 27.0809 96.8363C27.1456 96.7508 27.2302 96.639 27.285 96.5666C29.0778 95.7827 30.9295 95.126 32.7746 94.4644C33.2588 94.2668 33.7307 94.0402 34.1877 93.786C34.7105 93.7783 35.0817 93.356 35.5362 93.1518C35.6353 93.1028 35.7427 93.0703 35.8419 93.0212C36.2086 95.0385 36.9212 96.9771 37.9481 98.7517C38.8543 100.11 39.0996 101.753 39.7761 103.237C40.0339 103.867 41.2222 103.691 42.9054 102.71C44.5886 101.729 44.1861 101.332 44.1298 101.01Z" fill="#767680"/>
<path d="M82.0686 142.325C81.9489 140.006 81.6143 137.703 81.0691 135.446C80.8803 134.466 80.7658 133.469 80.6695 132.476C80.5906 132.416 80.4854 132.337 80.4791 132.249C80.2751 130.606 80.2031 128.938 80.0831 127.306C80.0667 127.102 80.0328 126.9 79.9818 126.702C81.7953 126.11 83.6137 125.511 85.4076 124.862C85.9792 124.653 86.8266 125.119 86.914 123.582C87.0047 123.216 86.7613 122.649 86.6792 122.184C86.304 120.07 85.9107 119.482 85.2041 120.034C85.0617 120.153 84.846 120.083 84.6662 120.102C83.8081 119.05 83.6787 120.751 82.9229 120.096C82.8708 120.365 82.7269 120.607 82.5158 120.782C82.3047 120.956 82.0396 121.051 81.7659 121.051C80.9488 121.229 80.1104 121.339 79.2687 121.468L79.2791 120.224C79.2716 117.747 79.429 115.27 79.5799 112.789C79.6151 112.278 80.3707 111.826 79.003 111.173C78.5639 110.991 78.1013 110.871 77.6289 110.816C75.5531 110.279 74.8651 110.369 75.0746 111.117C75.1267 111.28 74.9875 111.423 74.9324 111.578C73.6578 111.896 75.1621 112.641 74.2452 112.992C74.4651 113.11 74.6324 113.307 74.7142 113.543C74.7959 113.78 74.7861 114.038 74.6867 114.267C74.2216 115.955 73.8873 117.676 73.6865 119.415C73.6622 120.573 73.7378 121.73 73.9124 122.875C72.4637 123.423 71.0852 124.096 69.6432 124.608C67.3769 125.416 65.0471 126.021 62.7924 126.828C60.2652 127.708 57.6044 128.217 55.2091 129.497C53.5563 130.314 51.6589 130.471 49.8497 130.839C49.1003 130.996 48.9532 132.229 49.5159 134.082C50.0785 135.935 50.7592 135.664 51.2014 135.626C53.9913 135.296 56.7336 134.643 59.3737 133.682C60.5282 133.305 61.7004 133.013 62.8679 132.687C62.9376 132.594 63.0221 132.483 63.1113 132.447C65.0302 131.893 66.9588 131.367 68.881 130.794C69.3818 130.614 69.8694 130.399 70.3401 130.151C70.8712 130.16 71.2672 129.746 71.7266 129.535C72.6315 129.13 73.5598 128.779 74.5068 128.485C74.601 129.59 74.7083 130.706 74.8552 131.851C75.2343 134.206 75.3954 136.603 76.3491 138.814C77.0022 140.342 76.9505 142.009 77.2322 143.619C77.3431 144.292 78.5467 144.396 80.416 143.867C82.2853 143.337 82.0736 142.701 82.0686 142.325Z" fill="#767680"/>
<path d="M137.633 138.786C137.989 136.417 138.026 134.01 137.743 131.631C137.653 130.601 137.657 129.57 137.627 128.544C137.548 128.485 137.443 128.405 137.452 128.298C137.387 126.594 137.351 124.892 137.263 123.191C137.211 122.737 137.121 122.289 136.995 121.85C137.128 121.414 136.837 121.007 136.723 120.611C136.561 119.849 136.454 119.077 136.403 118.3C138.666 117.469 140.97 116.761 143.294 116.028C143.761 115.874 144.455 116.42 144.539 114.901C144.619 114.549 144.409 113.966 144.35 113.497C144.056 111.372 143.724 110.758 143.143 111.239C143.015 111.339 142.828 111.259 142.681 111.262C141.94 110.163 141.829 111.827 141.164 111.148C141.145 111.391 141.032 111.618 140.849 111.779C140.665 111.939 140.426 112.022 140.182 112.008C138.791 112.248 137.341 112.319 135.967 112.645C135.856 111.247 135.728 109.858 135.565 108.462C135.506 107.952 136.163 107.343 134.692 106.964C134.22 106.877 133.737 106.861 133.261 106.915C131.122 106.817 130.463 107.032 130.82 107.694C130.898 107.837 130.774 108.001 130.753 108.151C129.529 108.662 131.148 109.091 130.323 109.594C130.557 109.665 130.753 109.824 130.872 110.037C130.99 110.25 131.021 110.501 130.958 110.736C130.919 112.155 130.61 113.575 130.594 114.949C130.362 115.063 130.131 115.178 129.898 115.28C128.037 116.127 126.103 116.824 124.276 117.748C122.242 118.784 120.076 119.554 118.289 121.056C117.077 122.083 115.484 122.439 114.048 123.079C113.45 123.351 113.661 124.534 114.651 126.204C115.642 127.874 116.122 127.513 116.473 127.418C118.647 126.727 120.737 125.798 122.706 124.647C123.574 124.197 124.481 123.819 125.382 123.435C125.441 123.356 125.47 123.223 125.556 123.205C127.03 122.541 128.558 121.971 130.057 121.357C130.447 121.171 130.823 120.953 131.179 120.707C131.236 120.705 131.293 120.691 131.344 120.667C131.389 120.949 131.433 121.22 131.459 121.498C131.695 123.538 131.719 125.583 131.931 127.626C132.179 129.882 132.039 132.185 132.687 134.403C133.118 135.938 132.753 137.555 132.68 139.113C132.648 139.771 133.802 140.117 135.737 140.02C137.672 139.923 137.555 139.162 137.633 138.786Z" fill="#767680"/>
<path d="M99.4224 184.538C99.4726 182.391 99.3289 180.244 98.9931 178.123C98.9063 177.204 98.8689 176.282 98.8813 175.36C98.8089 175.305 98.7037 175.225 98.7141 175.13C98.6794 173.604 98.7734 172.072 98.8409 170.562C98.8421 170.486 98.8375 170.409 98.8271 170.334C100.032 169.75 101.281 169.26 102.562 168.869C104.847 168.064 107.164 167.408 109.494 166.72C109.969 166.584 110.641 167.144 110.778 165.624C110.865 165.276 110.683 164.683 110.631 164.22C110.411 162.078 110.102 161.461 109.495 161.922C109.361 162.017 109.184 161.936 109.024 161.928C108.315 160.802 108.15 162.456 107.516 161.749C107.488 161.992 107.366 162.215 107.177 162.371C106.988 162.526 106.746 162.603 106.502 162.584C104.814 162.701 103.138 162.943 101.486 163.308C100.576 163.601 99.6917 163.97 98.8427 164.41C98.8647 164.271 98.8867 164.133 98.9022 163.989C99.2121 161.721 99.7017 159.476 100.209 157.233C100.322 156.77 101.131 156.493 99.8847 155.653C99.4789 155.41 99.0449 155.217 98.5925 155.079C96.6237 154.209 95.9345 154.163 96.0369 154.903C96.0593 155.064 95.8971 155.169 95.8157 155.304C94.5027 155.345 95.8244 156.345 94.915 156.494C95.5228 157.058 95.2741 157.387 95.1802 157.729C94.8667 158.526 94.5568 159.264 94.227 160.028C93.9024 160.791 93.6494 161.583 93.4713 162.393C93.2636 163.884 93.1926 165.392 93.259 166.896C92.3073 167.293 91.3588 167.712 90.4414 168.187C88.4033 169.24 86.231 170.047 84.4613 171.593C83.2659 172.654 81.6793 173.056 80.2447 173.749C79.6547 174.037 79.9053 175.209 80.9784 176.879C82.0515 178.549 82.4953 178.141 82.8454 178.033C84.9866 177.281 87.0436 176.307 88.9833 175.129C89.8429 174.663 90.7368 174.274 91.6308 173.885C91.6905 173.806 91.7075 173.675 91.8049 173.655C92.2643 173.444 92.732 173.25 93.1946 173.062C93.1996 173.438 93.2061 173.826 93.2242 174.212C93.3995 176.413 93.2774 178.72 94.0532 180.879C94.6077 182.332 94.393 183.928 94.5546 185.477C94.6145 186.123 95.8013 186.276 97.6965 185.849C99.5917 185.422 99.3994 184.883 99.4224 184.538Z" fill="#767680"/>
</g>
</svg>
