<svg width="52" height="59" viewBox="0 0 52 59" fill="none" xmlns="http://www.w3.org/2000/svg">
<path opacity="0.3" d="M18.948 48.1063L-3.55469e-05 7.43925L15.4211 0.254062L30.4128 32.4298C32.4069 36.7096 37.4503 38.8404 41.7802 36.9686C42.8307 36.5138 43.7199 35.8915 44.4773 35.1502C44.7695 34.8545 45.1362 34.6143 45.5465 34.4231C47.7121 33.4141 50.2624 34.3621 51.2608 36.5049C51.3909 36.7841 51.4959 37.0542 51.5504 37.3201C51.5716 37.4698 51.6156 37.6088 51.6425 37.7559C52.9981 45.2949 49.2024 53.077 41.9307 56.4651L41.6685 56.5872C33.0398 60.4273 22.9363 56.666 18.948 48.1063Z" fill="#F15D01"/>
</svg>
