<svg width="147" height="92" viewBox="0 0 147 92" fill="none" xmlns="http://www.w3.org/2000/svg">
<g clip-path="url(#clip0_365_2596)">
<rect x="3.66895" y="36.9941" width="129" height="53" transform="rotate(-14.8533 3.66895 36.9941)" fill="#FFEDEA"/>
<path d="M43.3329 59.294L35.5209 61.3658L32.4294 49.7088L39.8412 47.7431C42.364 47.074 43.8797 47.7335 44.3642 49.5604C44.761 51.0567 44.2595 52.3256 42.16 52.9755L42.2061 53.1495C44.5606 52.6182 45.9602 53.4016 46.3893 55.0197C46.9107 56.9857 46.1167 58.5557 43.3329 59.294ZM36.4627 51.7863L36.855 53.2651L40.6652 52.2546C41.3264 52.0793 41.467 51.8371 41.324 51.2978C41.1809 50.7584 40.8646 50.6189 40.186 50.7988L36.4627 51.7863ZM37.5655 55.9445L37.9947 57.5626L42.1355 56.4644C42.9185 56.2567 43.1205 56.0356 42.9452 55.3744C42.7744 54.7307 42.5067 54.6341 41.7064 54.8463L37.5655 55.9445ZM50.8233 57.4937C48.8399 58.0197 47.4864 57.4103 47.0896 55.914C46.762 54.6787 47.3792 53.5653 49.3119 52.8479L52.7863 51.554L52.7401 51.3801C52.5048 50.4927 52.0851 50.4551 50.9194 50.7642C49.8407 51.0503 49.5655 51.3467 49.7593 52.0775L49.7778 52.1471L46.5068 53.0145L46.4976 52.9797C45.8793 50.6483 47.4311 48.6353 50.4063 47.8462C53.4684 47.0341 55.3441 48.1382 55.9947 50.5914L57.319 55.5848L54.2569 56.3969L53.7677 54.5526L53.5938 54.5988C53.5908 55.9217 52.7197 56.9908 50.8233 57.4937ZM50.3225 54.8332C50.3964 55.1116 50.6886 55.0899 51.1931 54.9561C52.7764 54.5362 53.3694 54.1741 53.2488 53.3681L50.6524 54.3919C50.3659 54.5051 50.2718 54.6418 50.3225 54.8332ZM63.2585 54.1958C60.1441 55.0218 57.7039 53.8253 56.9518 50.9894C56.1951 48.136 57.7263 45.9049 60.8406 45.079C63.8332 44.2853 66.1531 45.3088 66.776 47.6576L66.8498 47.936L63.5963 48.7989L63.5594 48.6597C63.3194 47.755 62.6075 47.7389 61.5462 48.0204C60.3457 48.3388 59.8408 48.752 60.2053 50.1265C60.5652 51.4836 61.2086 51.5923 62.4091 51.2739C63.4704 50.9924 64.0854 50.6431 63.8455 49.7384L63.8039 49.5818L67.0575 48.7189L67.1359 49.0147C67.7542 51.3461 66.251 53.4022 63.2585 54.1958ZM72.2637 51.6213L68.9927 52.4888L65.9012 40.8318L69.1721 39.9643L70.7456 45.8972L72.294 45.4866L73.4178 41.9296L77.2803 40.9053L75.2964 45.9939L79.5536 49.688L75.6912 50.7123L73.104 48.4003L71.5208 48.8202L72.2637 51.6213ZM84.8869 48.4598C81.9118 49.2488 79.4871 48.5324 78.615 45.2441C77.8583 42.3907 79.4765 40.1366 82.3995 39.3614C85.4268 38.5585 87.7595 39.56 88.507 42.3786C88.5854 42.6744 88.628 42.9052 88.6763 43.2276L81.8038 45.0502C82.1375 46.0977 82.6857 46.2688 84.0776 45.8997C85.3999 45.549 85.6879 45.2306 85.5494 44.7086L85.4987 44.5172L88.7696 43.6497L88.825 43.8585C89.3418 45.8072 87.8447 47.6754 84.8869 48.4598ZM82.9943 41.8853C81.7938 42.2036 81.3585 42.5984 81.4177 43.3835L85.1236 42.4006C84.8034 41.6848 84.2122 41.5623 82.9943 41.8853ZM93.8759 45.8896L90.605 46.7571L88.2794 37.9882L91.3415 37.1761L92.0475 39.8381L92.2215 39.792C92.0253 38.2797 92.6177 36.6515 94.9665 36.0285C97.3327 35.401 98.8246 36.5324 99.3275 38.4288L100.818 44.0485L97.547 44.916L96.375 40.4968C96.052 39.2789 95.4981 39.0161 94.0714 39.3945C92.6273 39.7774 92.3763 40.2351 92.6762 41.366L93.8759 45.8896ZM105.815 42.9094C103.136 43.62 101.2 42.2898 100.448 39.4538C99.6914 36.6004 100.683 34.5124 103.258 33.8295C105.329 33.2804 106.561 33.9963 107.21 35.3886L107.384 35.3424L106.018 30.1925L109.289 29.325L112.381 40.982L109.318 41.7941L108.691 39.4279L108.517 39.4741C108.7 41.2878 107.868 42.3649 105.815 42.9094ZM103.754 38.5771C104.063 39.7428 104.691 40.0045 106.205 39.6031C107.666 39.2155 108.288 38.7526 107.952 37.4825L107.919 37.3607C107.592 36.1254 106.831 36.0664 105.37 36.454C103.856 36.8554 103.445 37.4114 103.754 38.5771Z" fill="#A80710"/>
</g>
<rect x="4.17001" y="37.2851" width="128.181" height="52.1806" transform="rotate(-14.8533 4.17001 37.2851)" stroke="#BA1A1A" stroke-width="0.819444"/>
<rect x="2.00425" y="36.0273" width="3.27778" height="3.27778" transform="rotate(-14.8533 2.00425 36.0273)" fill="#BA1A1A" stroke="#BA1A1A" stroke-width="3.27778"/>
<rect x="126.425" y="3.02973" width="3.27778" height="3.27778" transform="rotate(-14.8533 126.425 3.02973)" fill="#BA1A1A" stroke="#BA1A1A" stroke-width="3.27778"/>
<rect x="139.869" y="53.7216" width="3.27778" height="3.27778" transform="rotate(-14.8533 139.869 53.7216)" fill="#BA1A1A" stroke="#BA1A1A" stroke-width="3.27778"/>
<rect x="15.4481" y="86.7192" width="3.27778" height="3.27778" transform="rotate(-14.8533 15.4481 86.7192)" fill="#BA1A1A" stroke="#BA1A1A" stroke-width="3.27778"/>
<defs>
<clipPath id="clip0_365_2596">
<rect x="3.66895" y="36.9941" width="129" height="53" transform="rotate(-14.8533 3.66895 36.9941)" fill="white"/>
</clipPath>
</defs>
</svg>
