<svg width="125" height="67" viewBox="0 0 125 67" fill="none" xmlns="http://www.w3.org/2000/svg">
<rect x="7.26463" y="3.91882" width="113.903" height="51.625" transform="rotate(3.71657 7.26463 3.91882)" fill="#DDF4FF"/>
<rect x="7.26463" y="3.91882" width="113.903" height="51.625" transform="rotate(3.71657 7.26463 3.91882)" stroke="#006780" stroke-width="0.819444"/>
<path d="M38.4536 37.3236L32.3645 36.9281L33.1462 24.8935L39.2354 25.289C43.205 25.5469 45.5762 27.9195 45.3288 31.7275C45.0815 35.5355 42.4233 37.5815 38.4536 37.3236ZM39.0382 28.3246L36.3259 28.1484L35.9385 34.1119L38.6508 34.288C40.7883 34.4269 41.5423 34.2053 41.7185 31.493C41.8946 28.7807 41.1757 28.4634 39.0382 28.3246ZM50.8671 38.3104C47.7956 38.1108 45.7253 36.6596 45.9459 33.2648C46.1372 30.319 48.389 28.6975 51.4067 28.8935C54.5321 29.0966 56.4244 30.7888 56.2354 33.6986C56.2155 34.004 56.1824 34.2363 56.1255 34.5573L49.0304 34.0964C49.0131 35.1956 49.4783 35.5325 50.9153 35.6258C52.2804 35.7145 52.6548 35.5043 52.6898 34.9655L52.7026 34.7679L56.0795 34.9872L56.0655 35.2028C55.9348 37.2146 53.9207 38.5087 50.8671 38.3104ZM51.1668 31.4754C49.9274 31.3949 49.389 31.6305 49.1952 32.3935L53.0211 32.6421C52.9455 31.8615 52.4242 31.5571 51.1668 31.4754ZM61.6858 39.0131C58.4886 38.8054 56.8627 37.4552 56.998 35.3716L57.0027 35.2997L60.3796 35.5191L60.3679 35.6987C60.3352 36.2017 60.655 36.2765 61.8765 36.3559C63.044 36.4317 63.2318 36.3177 63.2516 36.0123C63.2703 35.7249 63.1313 35.6437 62.2929 35.4991L59.6891 35.0413C57.8339 34.7224 56.8851 33.7769 56.9843 32.2501C57.0882 30.6515 58.4533 29.3513 61.8482 29.5718C64.9915 29.776 66.5885 31.0161 66.4438 33.2434L66.4392 33.3153L63.0623 33.0959L63.0693 32.9881C63.0996 32.5211 62.934 32.2939 61.5689 32.2052C60.4732 32.134 60.3202 32.2684 60.298 32.6097C60.2817 32.8612 60.4172 32.9962 61.4699 33.1728L63.2533 33.4871C65.8751 33.946 66.6621 34.881 66.563 36.4078C66.4533 38.0962 64.6855 39.208 61.6858 39.0131ZM71.2152 29.5309L67.8383 29.3115L67.9783 27.1561L71.3552 27.3754L71.2152 29.5309ZM70.5735 39.4101L67.1966 39.1907L67.7846 30.1378L71.1615 30.3571L70.5735 39.4101ZM75.7409 38.7356C73.0466 38.5606 71.6381 36.9178 71.8061 34.3313C71.9718 31.7807 73.6887 30.3409 76.3651 30.5148C78.1972 30.6338 79.3708 31.4496 79.5208 33.0286L79.7004 33.0403L79.8381 30.9207L82.9994 31.1261L82.5105 38.6522C82.3005 41.8854 80.2794 43.2874 76.7947 43.061C73.6334 42.8557 71.8876 41.4074 72.0416 39.0364L75.4185 39.2558C75.3707 39.9922 75.4488 40.1777 77.2091 40.292C78.664 40.3866 79.0193 40.1932 79.1185 38.6664L79.2422 36.7624L79.0625 36.7507C78.7439 38.0468 77.7347 38.8651 75.7409 38.7356ZM75.2189 34.553C75.1606 35.4511 75.5695 35.8204 77.1502 35.923C78.659 36.021 79.2993 35.8823 79.3612 34.9303L79.3693 34.8045C79.4323 33.8346 78.8165 33.5962 77.3077 33.4981C75.727 33.3955 75.2761 33.6728 75.2189 34.553ZM86.8692 40.4686L83.4923 40.2492L84.0804 31.1963L87.2417 31.4017L87.0632 34.1499L87.2428 34.1615C87.5384 32.6656 88.6185 31.3107 91.0434 31.4682C93.4862 31.6269 94.5401 33.1745 94.413 35.1324L94.0361 40.9341L90.6592 40.7148L90.9556 36.1524C91.0372 34.895 90.5959 34.4695 89.123 34.3739C87.6321 34.277 87.2484 34.6309 87.1726 35.7984L86.8692 40.4686Z" fill="#006780"/>
<rect x="5.35343" y="1.74168" width="3.27778" height="3.27778" transform="rotate(3.71657 5.35343 1.74168)" fill="#006780" stroke="#006780" stroke-width="3.27778"/>
<rect x="119.834" y="9.1782" width="3.27778" height="3.27778" transform="rotate(3.71657 119.834 9.1782)" fill="#006780" stroke="#006780" stroke-width="3.27778"/>
<rect x="116.434" y="61.5122" width="3.27778" height="3.27778" transform="rotate(3.71657 116.434 61.5122)" fill="#006780" stroke="#006780" stroke-width="3.27778"/>
<rect x="1.95352" y="54.0757" width="3.27778" height="3.27778" transform="rotate(3.71657 1.95352 54.0757)" fill="#006780" stroke="#006780" stroke-width="3.27778"/>
</svg>
