<svg width="170" height="88" viewBox="0 0 170 88" fill="none" xmlns="http://www.w3.org/2000/svg">
<rect x="3.97635" y="32.2077" width="153.181" height="52.1806" transform="rotate(-10.5504 3.97635 32.2077)" fill="#EFEFFF"/>
<rect x="3.97635" y="32.2077" width="153.181" height="52.1806" transform="rotate(-10.5504 3.97635 32.2077)" stroke="#455AA6" stroke-width="0.819444"/>
<path d="M49.5392 55.5722L46.2124 56.1919L44.0042 44.3357L54.604 42.3615L55.1609 45.3521L47.888 46.7067L48.2176 48.4763L55.2251 47.1711L55.7788 50.144L48.7713 51.4491L49.5392 55.5722ZM61.0138 53.4351L57.687 54.0547L56.0259 45.1361L59.1403 44.556L59.5754 46.8919L59.7523 46.8589C59.7265 45.344 60.4522 44.1286 62.2218 43.799C64.186 43.4332 65.2052 44.5799 65.5381 46.3672L65.8677 48.1368L62.5409 48.7564L62.3465 47.7123C62.208 46.9691 61.8755 46.7564 61.0084 46.9179C60.1059 47.086 59.8899 47.4009 60.0217 48.1087L61.0138 53.4351ZM72.3344 51.5098C69.2376 52.0865 66.8056 50.7269 66.2683 47.8425C65.7278 44.9404 67.5106 42.814 70.6074 42.2372C73.7041 41.6604 76.1329 43.0024 76.6734 45.9045C77.2106 48.7889 75.4311 50.933 72.3344 51.5098ZM71.7873 48.5723C73.2914 48.2921 73.6226 47.8093 73.382 46.5175C73.1414 45.2257 72.6553 44.8769 71.1512 45.157C69.647 45.4371 69.3191 45.9376 69.5597 47.2294C69.8003 48.5212 70.2831 48.8524 71.7873 48.5723ZM81.6299 49.5954L78.3032 50.215L76.6421 41.2963L79.7565 40.7163L80.2608 43.4237L80.4377 43.3908C80.3555 41.8681 81.0684 40.2888 83.4573 39.8439C85.864 39.3957 87.2667 40.6358 87.626 42.5646L88.6905 48.2803L85.3637 48.9L84.5266 44.4052C84.2959 43.1665 83.7633 42.8629 82.3123 43.1332C80.8435 43.4067 80.5588 43.8443 80.773 44.9945L81.6299 49.5954ZM96.3453 46.8546L94.0095 47.2897C91.7798 47.705 90.2516 46.8727 89.8198 44.5546L89.2991 41.7587L87.9896 42.0025L87.4821 39.2774L88.7915 39.0335L88.5048 37.494L91.8316 36.8744L92.1183 38.4139L94.6842 37.936L95.1918 40.6611L92.6259 41.139L93.0576 43.4572C93.1895 44.165 93.4348 44.3024 94.1957 44.1607L95.7883 43.8641L96.3453 46.8546ZM102.145 45.9576C99.1189 46.5212 96.7548 45.6249 96.1319 42.2804C95.5914 39.3783 97.3742 37.2519 100.347 36.6982C103.426 36.1247 105.677 37.2984 106.211 40.1651C106.267 40.466 106.292 40.6993 106.316 41.0244L99.3263 42.3263C99.5804 43.3958 100.114 43.6077 101.53 43.344C102.875 43.0935 103.186 42.7975 103.087 42.2667L103.051 42.072L106.378 41.4524L106.417 41.6648C106.786 43.6467 105.153 45.3973 102.145 45.9576ZM100.751 39.2596C99.5299 39.487 99.0661 39.848 99.0663 40.6353L102.835 39.9333C102.57 39.1954 101.99 39.0289 100.751 39.2596ZM111.301 44.0691L107.975 44.6887L106.313 35.7701L109.428 35.19L109.932 37.8975L110.109 37.8645C110.027 36.3418 110.74 34.7626 113.129 34.3176C115.535 33.8694 116.938 35.1095 117.297 37.0384L118.362 42.7541L115.035 43.3737L114.198 38.879C113.967 37.6403 113.435 37.3367 111.984 37.6069C110.515 37.8805 110.23 38.318 110.444 39.4682L111.301 44.0691ZM123.431 41.9931C120.706 42.5007 118.875 41.0289 118.338 38.1445C117.797 35.2424 118.943 33.2347 121.562 32.7469C123.668 32.3547 124.843 33.1611 125.386 34.5981L125.563 34.5652L124.587 29.3272L127.914 28.7076L130.122 40.5637L127.008 41.1438L126.559 38.7372L126.382 38.7701C126.429 40.5924 125.519 41.6042 123.431 41.9931ZM121.7 37.5183C121.921 38.7039 122.528 39.0121 124.067 38.7253C125.554 38.4485 126.209 38.0335 125.968 36.7417L125.945 36.6179C125.711 35.3615 124.957 35.2456 123.471 35.5224C121.931 35.8091 121.479 36.3327 121.7 37.5183Z" fill="#394D99"/>
<rect x="1.91126" y="30.7906" width="3.27778" height="3.27778" transform="rotate(-10.5504 1.91126 30.7906)" fill="#455AA6" stroke="#455AA6" stroke-width="3.27778"/>
<rect x="153.035" y="2.64411" width="3.27778" height="3.27778" transform="rotate(-10.5504 153.035 2.64411)" fill="#455AA6" stroke="#455AA6" stroke-width="3.27778"/>
<rect x="162.637" y="54.2017" width="3.27778" height="3.27778" transform="rotate(-10.5504 162.637 54.2017)" fill="#455AA6" stroke="#455AA6" stroke-width="3.27778"/>
<rect x="11.5138" y="82.3482" width="3.27778" height="3.27778" transform="rotate(-10.5504 11.5138 82.3482)" fill="#455AA6" stroke="#455AA6" stroke-width="3.27778"/>
</svg>
