<svg width="24" height="24" viewBox="0 0 24 24" fill="none" xmlns="http://www.w3.org/2000/svg">
<path d="M21.8055 10.0425H21V10.001H12V14.001H17.6515C16.827 16.3295 14.6115 18.001 12 18.001C8.6865 18.001 6 15.3145 6 12.001C6 8.68748 8.6865 6.00098 12 6.00098C13.5295 6.00098 14.921 6.57798 15.9805 7.52048L18.809 4.69198C17.023 3.02748 14.634 2.00098 12 2.00098C6.4775 2.00098 2 6.47848 2 12.001C2 17.5235 6.4775 22.001 12 22.001C17.5225 22.001 22 17.5235 22 12.001C22 11.3305 21.931 10.676 21.8055 10.0425Z" fill="#FBC02D"/>
<path d="M3.15283 7.34648L6.43833 9.75598C7.32733 7.55498 9.48033 6.00098 11.9998 6.00098C13.5293 6.00098 14.9208 6.57798 15.9803 7.52048L18.8088 4.69198C17.0228 3.02748 14.6338 2.00098 11.9998 2.00098C8.15883 2.00098 4.82783 4.16948 3.15283 7.34648Z" fill="#E53935"/>
<path d="M12.0006 22.0003C14.5836 22.0003 16.9306 21.0118 18.7051 19.4043L15.6101 16.7853C14.6061 17.5458 13.3581 18.0003 12.0006 18.0003C9.39964 18.0003 7.19114 16.3418 6.35914 14.0273L3.09814 16.5398C4.75314 19.7783 8.11414 22.0003 12.0006 22.0003Z" fill="#4CAF50"/>
<path d="M21.8055 10.0415L21.7975 10H21H12V14H17.6515C17.2555 15.1185 16.536 16.083 15.608 16.7855L15.6095 16.7845L18.7045 19.4035C18.4855 19.6025 22 17 22 12C22 11.3295 21.931 10.675 21.8055 10.0415Z" fill="#1565C0"/>
</svg>
