<svg width="21" height="21" viewBox="0 0 21 21" fill="none" xmlns="http://www.w3.org/2000/svg">
<path d="M7.4917 15.9076V7.44095C7.4917 7.10762 7.5917 6.78262 7.77503 6.50762L10.05 3.12429C10.4084 2.58262 11.3 2.19929 12.0584 2.48262C12.875 2.75762 13.4167 3.67429 13.2417 4.49095L12.8084 7.21595C12.775 7.46595 12.8417 7.69095 12.9834 7.86595C13.125 8.02429 13.3334 8.12429 13.5584 8.12429H16.9834C17.6417 8.12429 18.2084 8.39095 18.5417 8.85762C18.8584 9.30762 18.9167 9.89095 18.7084 10.4826L16.6584 16.7243C16.4 17.7576 15.275 18.5993 14.1584 18.5993H10.9084C10.35 18.5993 9.5667 18.4076 9.20837 18.0493L8.1417 17.2243C7.73337 16.916 7.4917 16.4243 7.4917 15.9076Z" fill="white"/>
<path d="M4.84199 5.81641H3.98366C2.69199 5.81641 2.16699 6.31641 2.16699 7.54974V15.9331C2.16699 17.1664 2.69199 17.6664 3.98366 17.6664H4.84199C6.13366 17.6664 6.65866 17.1664 6.65866 15.9331V7.54974C6.65866 6.31641 6.13366 5.81641 4.84199 5.81641Z" fill="white"/>
</svg>
