<svg width="25" height="24" viewBox="0 0 25 24" fill="none" xmlns="http://www.w3.org/2000/svg">
<path d="M10.25 13.229C10.3916 13.4609 10.5597 13.6804 10.7542 13.8828C11.9617 15.1395 13.8022 15.336 15.2076 14.4722C15.468 14.3121 15.7134 14.1157 15.9372 13.8828L19.1766 10.5114C20.6078 9.02184 20.6078 6.60676 19.1766 5.11718C17.7453 3.6276 15.4248 3.62761 13.9935 5.11718L13.28 5.85978" stroke="#092470" stroke-width="2" stroke-linecap="round"/>
<path d="M11.2203 18.14L10.5065 18.8828C9.07526 20.3724 6.75471 20.3724 5.32345 18.8828C3.89218 17.3932 3.89218 14.9782 5.32345 13.4886L8.56287 10.1172C9.99413 8.62761 12.3147 8.6276 13.7459 10.1172C13.9404 10.3195 14.1084 10.539 14.25 10.7708" stroke="#092470" stroke-width="2" stroke-linecap="round"/>
</svg>
