<svg width="25" height="24" viewBox="0 0 25 24" fill="none" xmlns="http://www.w3.org/2000/svg">
<path d="M19.9299 1.91992H4.56992C3.24512 1.91992 2.16992 2.99512 2.16992 4.31992V19.6799C2.16992 21.0047 3.24512 22.0799 4.56992 22.0799H19.9299C21.2547 22.0799 22.3299 21.0047 22.3299 19.6799V4.31992C22.3299 2.99512 21.2547 1.91992 19.9299 1.91992ZM8.40992 9.59992V18.7199H5.52992V9.59992H8.40992ZM5.52992 6.94552C5.52992 6.27352 6.10592 5.75992 6.96992 5.75992C7.83392 5.75992 8.37632 6.27352 8.40992 6.94552C8.40992 7.61752 7.87232 8.15992 6.96992 8.15992C6.10592 8.15992 5.52992 7.61752 5.52992 6.94552ZM18.9699 18.7199H16.0899C16.0899 18.7199 16.0899 14.2751 16.0899 13.9199C16.0899 12.9599 15.6099 11.9999 14.4099 11.9807H14.3715C13.2099 11.9807 12.7299 12.9695 12.7299 13.9199C12.7299 14.3567 12.7299 18.7199 12.7299 18.7199H9.84992V9.59992H12.7299V10.8287C12.7299 10.8287 13.6563 9.59992 15.5187 9.59992C17.4243 9.59992 18.9699 10.9103 18.9699 13.5647V18.7199Z" fill="#092470"/>
</svg>
