<svg width="82" height="33" viewBox="0 0 82 33" fill="none" xmlns="http://www.w3.org/2000/svg">
<path d="M59.4694 6.80566H55.1286C54.8258 6.80566 54.5844 7.05146 54.5844 7.34992V17.8399C54.5844 19.2883 54.2771 20.3987 53.6583 21.1712C53.0438 21.9437 52.1704 22.33 51.0336 22.33C49.9978 22.33 49.2516 21.9744 48.7908 21.2634C48.3299 20.5524 48.1017 19.4595 48.1017 17.9891V7.34992C48.1017 7.05146 47.8603 6.80566 47.5574 6.80566H43.2166C42.9138 6.80566 42.6724 7.05146 42.6724 7.34992V19.2883C42.6724 21.5048 43.2342 23.2868 44.3534 24.6255C45.477 25.9641 47.101 26.6313 49.2209 26.6313C50.4016 26.6313 51.4637 26.3987 52.4074 25.929C53.3466 25.4594 54.0708 24.7527 54.58 23.8135V31.9553C54.58 32.2537 54.8214 32.4995 55.1242 32.4995H59.465C59.7635 32.4995 60.0093 32.2581 60.0093 31.9553V7.34992C60.0137 7.04707 59.7679 6.80566 59.4694 6.80566Z" fill="#092470"/>
<path d="M18.6906 11.8853V26.1982H13.2613V14.8743C13.2613 13.3688 12.0894 12.074 10.5839 12.0301C10.2196 12.0213 9.87728 12.0784 9.55687 12.1925C9.43398 12.2364 9.29353 12.2584 9.14869 12.2584C8.38937 12.2584 7.7749 11.6395 7.7749 10.8846C7.7749 10.788 7.77929 10.6958 7.80124 10.608C7.8144 10.5642 7.81879 10.5159 7.83196 10.472C8.45521 8.11064 10.6015 6.36816 13.1603 6.36816H13.2525C16.2722 6.42522 18.6906 8.87434 18.6906 11.8853Z" fill="#092470"/>
<path d="M11.6066 17.7931C11.6066 17.8897 11.6022 17.9818 11.5803 18.0696C11.5671 18.1135 11.5627 18.1618 11.5496 18.2057C11.4706 18.4954 11.374 18.7719 11.2599 19.0308C11.2336 19.0835 11.216 19.1362 11.1897 19.1801C11.1458 19.2722 11.0975 19.3644 11.0448 19.4566C10.9658 19.6014 10.8824 19.7375 10.7946 19.8779C10.7156 19.9877 10.6366 20.093 10.5532 20.1983C10.3118 20.5144 10.0353 20.7953 9.72809 21.0454C9.66226 21.0981 9.59642 21.1552 9.53058 21.2034C9.23651 21.4273 8.9205 21.616 8.58693 21.774C8.52109 21.8047 8.45526 21.8399 8.38503 21.8662C8.13485 21.9715 7.8715 22.0637 7.60377 22.1339C7.48526 22.1603 7.36237 22.1866 7.24386 22.2042C7.1868 22.2173 7.12536 22.2305 7.0683 22.2349C6.94979 22.2524 6.8269 22.2656 6.69961 22.2788H6.69522C6.54599 22.2919 6.38799 22.2963 6.22998 22.2963H6.13781C3.12689 22.2437 0.708496 19.7945 0.708496 16.7836V0.5H6.13781V13.8736C6.13781 15.3966 7.37115 16.6388 8.89416 16.6388C8.97756 16.6388 9.06534 16.6344 9.14434 16.6256C9.22334 16.6212 9.30235 16.6124 9.38135 16.5949C9.42524 16.5905 9.47791 16.5817 9.52619 16.5685C9.59203 16.5554 9.64909 16.5378 9.71492 16.5159C9.75443 16.5027 9.79832 16.4895 9.83782 16.4764C9.96071 16.4325 10.1012 16.4105 10.246 16.4105C10.9965 16.4193 11.6066 17.0382 11.6066 17.7931Z" fill="#092470"/>
<path d="M79.1629 6.80659C77.596 6.80659 76.2705 7.86437 75.8667 9.304V9.55857C75.8535 9.53224 75.8404 9.5059 75.8228 9.47956C75.2961 8.50518 74.5456 7.74587 73.5668 7.20601C72.5661 6.65298 71.3898 6.37207 70.038 6.37207C68.3219 6.37207 66.8691 6.81537 65.6752 7.6932C64.4814 8.57541 63.5816 9.78242 62.9803 11.3142C62.379 12.846 62.0762 14.5753 62.0762 16.5065C62.0762 18.4641 62.3834 20.2022 62.9979 21.7384C63.6167 23.2702 64.5121 24.4684 65.6928 25.3418C66.8778 26.2109 68.3131 26.6454 70.0029 26.6454C71.403 26.6454 72.61 26.3557 73.6371 25.7763C74.6641 25.197 75.441 24.3762 75.972 23.314L76.0554 25.4954C76.0686 25.8948 76.3978 26.2065 76.7972 26.2065H80.5499C80.9581 26.2065 81.2916 25.8729 81.2916 25.4647V9.00115C81.2916 7.82487 80.3611 6.81976 79.1849 6.81098C79.1805 6.80659 79.1717 6.80659 79.1629 6.80659ZM74.8923 20.8474C74.2384 21.9315 73.2157 22.4757 71.8156 22.4757C70.512 22.4757 69.4937 21.9051 68.7608 20.7552C68.0234 19.6096 67.6591 18.192 67.6591 16.5021C67.6591 14.7684 68.0146 13.3376 68.7257 12.214C69.4367 11.0948 70.4681 10.533 71.82 10.533C73.2201 10.533 74.2428 11.064 74.8967 12.1262C75.5463 13.1884 75.8755 14.6499 75.8755 16.5021C75.8711 18.3148 75.5419 19.7633 74.8923 20.8474Z" fill="#092470"/>
<path d="M38.222 6.80659C36.6551 6.80659 35.3296 7.86437 34.9258 9.304V9.55857C34.9126 9.53224 34.8995 9.5059 34.8819 9.47956C34.3552 8.50518 33.6047 7.74587 32.6259 7.20601C31.6252 6.65298 30.4489 6.37207 29.0971 6.37207C27.3809 6.37207 25.9281 6.81537 24.7343 7.6932C23.5405 8.57541 22.6407 9.78242 22.0394 11.3142C21.4381 12.846 21.1353 14.5753 21.1353 16.5065C21.1353 18.4641 21.4425 20.2022 22.057 21.7384C22.6758 23.2702 23.5712 24.4684 24.7519 25.3418C25.9369 26.2109 27.3722 26.6454 29.062 26.6454C30.4621 26.6454 31.6691 26.3557 32.6961 25.7763C33.7232 25.197 34.5001 24.3762 35.0311 23.314L35.1145 25.4954C35.1277 25.8948 35.4569 26.2065 35.8563 26.2065H39.609C40.0171 26.2065 40.3507 25.8729 40.3507 25.4647V9.00115C40.3507 7.82487 39.4202 6.81976 38.244 6.81098C38.2352 6.80659 38.2264 6.80659 38.222 6.80659ZM33.947 20.8474C33.2931 21.9315 32.2704 22.4757 30.8703 22.4757C29.5667 22.4757 28.5484 21.9051 27.8155 20.7552C27.0781 19.6096 26.7138 18.192 26.7138 16.5021C26.7138 14.7684 27.0693 13.3376 27.7803 12.214C28.4914 11.0948 29.5228 10.533 30.8747 10.533C32.2748 10.533 33.2974 11.064 33.9514 12.1262C34.601 13.1884 34.9302 14.6499 34.9302 16.5021C34.9258 18.3148 34.5966 19.7633 33.947 20.8474Z" fill="#092470"/>
</svg>
