<svg width="213" height="112" viewBox="0 0 213 112" fill="none" xmlns="http://www.w3.org/2000/svg">
<g clip-path="url(#clip0_388_3795)">
<rect x="19.751" y="4.22461" width="195" height="53" transform="rotate(15.4644 19.751 4.22461)" fill="#FFEBF7"/>
<path d="M62.1465 48.8674L58.885 47.965L62.1007 36.3417L66.5245 37.5655L67.3241 42.9787L67.6388 46.2967L67.8643 46.3591L69.7876 43.6602L73.1516 39.3989L77.5754 40.6228L74.3598 52.2462L71.0983 51.3439L72.4277 46.5384L73.0867 44.629L72.8612 44.5666L71.6644 46.3272L68.7921 49.9588L64.8367 48.8646L64.2393 44.273L64.1176 42.1476L63.8921 42.0853L63.476 44.0619L62.1465 48.8674ZM80.1954 54.0474C77.1595 53.2075 75.5702 50.9189 76.3525 48.0911C77.1396 45.246 79.6744 44.117 82.7104 44.9569C85.7463 45.7968 87.3404 48.0681 86.5533 50.9132C85.771 53.741 83.2314 54.8874 80.1954 54.0474ZM80.9921 51.1676C82.4668 51.5756 82.9762 51.2869 83.3265 50.0205C83.6769 48.7541 83.3931 48.2273 81.9184 47.8194C80.4438 47.4114 79.9296 47.7174 79.5793 48.9838C79.2289 50.2503 79.5175 50.7597 80.9921 51.1676ZM89.1807 56.3465L86.1274 55.5018L89.343 43.8784L92.6045 44.7807L91.1839 49.9158L91.3573 49.9638C92.0207 48.5785 93.261 47.8758 95.3255 48.4469C97.893 49.1573 98.8626 51.2558 98.0754 54.1009C97.2931 56.9287 95.3434 58.2382 92.6717 57.4991C90.6246 56.9327 89.8045 55.8467 90.0069 54.0351L89.8334 53.9871L89.1807 56.3465ZM90.5935 52.0496C90.2431 53.3161 90.8603 53.7856 92.3176 54.1888C93.8269 54.6063 94.4577 54.3513 94.7793 53.189C95.1008 52.0266 94.6956 51.4663 93.1863 51.0487C91.729 50.6456 90.9679 50.6965 90.6271 51.9282L90.5935 52.0496ZM103.634 50.0731L100.372 49.1708L100.948 47.089L104.21 47.9913L103.634 50.0731ZM100.994 59.6147L97.7324 58.7124L100.151 49.9688L103.413 50.8711L100.994 59.6147ZM105.297 60.8052L102.036 59.9029L105.251 48.2795L108.513 49.1818L105.297 60.8052ZM111.166 62.6155C108.199 61.7948 106.468 59.9524 107.375 56.6736C108.162 53.8285 110.697 52.6995 113.611 53.5058C116.63 54.3409 118.138 56.383 117.36 59.1934C117.279 59.4883 117.199 59.7091 117.078 60.0117L110.225 58.1159C109.985 59.1886 110.372 59.6131 111.759 59.997C113.078 60.3618 113.487 60.2323 113.631 59.7118L113.684 59.521L116.946 60.4233L116.888 60.6315C116.35 62.5745 114.115 63.4314 111.166 62.6155ZM112.851 55.9848C111.654 55.6536 111.079 55.7746 110.733 56.4822L114.429 57.5045C114.514 56.7249 114.065 56.3207 112.851 55.9848ZM125.456 66.3822L119.575 64.7552L122.79 53.1318L128.672 54.7588C132.506 55.8195 134.344 58.6253 133.326 62.3031C132.309 65.981 129.29 67.4429 125.456 66.3822ZM127.86 57.6907L125.241 56.966L123.647 62.7256L126.267 63.4504C128.331 64.0215 129.115 63.958 129.839 61.3384C130.564 58.7188 129.925 58.2618 127.86 57.6907ZM137.408 69.8757C134.442 69.055 132.71 67.2126 133.618 63.9338C134.405 61.0887 136.939 59.9597 139.854 60.766C142.873 61.6011 144.381 63.6432 143.603 66.4536C143.522 66.7485 143.442 66.9692 143.321 67.2719L136.468 65.3761C136.227 66.4488 136.614 66.8733 138.002 67.2572C139.321 67.622 139.73 67.4924 139.874 66.972L139.927 66.7812L143.188 67.6835L143.131 67.8917C142.593 69.8347 140.358 70.6916 137.408 69.8757ZM139.093 63.245C137.896 62.9138 137.321 63.0348 136.976 63.7424L140.671 64.7647C140.756 63.9851 140.308 63.5809 139.093 63.245ZM150.508 73.3129L146.483 72.1994L145.016 62.3808L148.659 63.3887L149.304 69.5622L149.53 69.6246L153.274 64.6654L156.847 65.6541L150.508 73.3129Z" fill="#674962"/>
</g>
<rect x="20.0366" y="4.72875" width="194.181" height="52.1806" transform="rotate(15.4644 20.0366 4.72875)" stroke="#74546E" stroke-width="0.819444"/>
<rect x="16.874" y="2.01655" width="3.27778" height="3.27778" transform="rotate(15.4644 16.874 2.01655)" fill="#74546E" stroke="#74546E" stroke-width="3.27778"/>
<rect x="206.475" y="54.4706" width="3.27778" height="3.27778" transform="rotate(15.4644 206.475 54.4706)" fill="#74546E" stroke="#74546E" stroke-width="3.27778"/>
<rect x="192.49" y="105.016" width="3.27778" height="3.27778" transform="rotate(15.4644 192.49 105.016)" fill="#74546E" stroke="#74546E" stroke-width="3.27778"/>
<rect x="2.88963" y="52.5624" width="3.27778" height="3.27778" transform="rotate(15.4644 2.88963 52.5624)" fill="#74546E" stroke="#74546E" stroke-width="3.27778"/>
<defs>
<clipPath id="clip0_388_3795">
<rect x="19.751" y="4.22461" width="195" height="53" transform="rotate(15.4644 19.751 4.22461)" fill="white"/>
</clipPath>
</defs>
</svg>
