<svg width="24" height="24" viewBox="0 0 24 24" fill="none" xmlns="http://www.w3.org/2000/svg">
<path d="M13.999 14L16.499 16.5" stroke="#ACAAAE" stroke-width="1.5" stroke-linejoin="round"/>
<path d="M16.4323 18.5252C15.8546 17.9475 15.8546 17.0109 16.4323 16.4333C17.0099 15.8556 17.9465 15.8556 18.5242 16.4333L21.5658 19.4748C22.1434 20.0525 22.1434 20.9891 21.5658 21.5667C20.9881 22.1444 20.0515 22.1444 19.4738 21.5667L16.4323 18.5252Z" stroke="#ACAAAE" stroke-width="1.5" stroke-linecap="round"/>
<path d="M15.999 9C15.999 5.13401 12.865 2 8.99902 2C5.13303 2 1.99902 5.13401 1.99902 9C1.99902 12.866 5.13303 16 8.99902 16C12.865 16 15.999 12.866 15.999 9Z" stroke="#ACAAAE" stroke-width="1.5" stroke-linejoin="round"/>
</svg>
