<svg width="411" height="444" viewBox="0 0 411 444" fill="none" xmlns="http://www.w3.org/2000/svg">
<g opacity="0.2">
<path d="M317.258 239.298L409.989 539.656L296.322 575.093L222.953 337.45C213.194 305.84 180.268 286.297 148.491 295.235C140.781 297.408 134.03 300.897 128.078 305.337C125.773 307.117 123.005 308.441 119.98 309.384C104.018 314.36 87.2459 305.378 82.3598 289.551C81.723 287.489 81.2513 285.514 81.1256 283.615C81.1208 282.555 80.9478 281.548 80.901 280.501C78.6568 226.846 112.336 176.341 165.936 159.63L167.868 159.028C231.298 140.453 297.74 176.078 317.258 239.298Z" fill="#092470"/>
<path d="M207.299 409.3C207.936 411.362 208.407 413.338 208.533 415.237C208.538 416.297 208.711 417.304 208.758 418.351C208.991 424.923 208.713 431.331 208.063 437.578C207.854 438.843 207.772 440.068 207.525 441.207C207.157 443.444 206.788 445.682 206.281 447.916C205.578 451.458 204.669 454.925 203.788 458.337C202.877 461.205 201.873 463.918 200.784 466.657C197.742 474.85 193.819 482.579 188.961 489.815C187.913 491.342 186.958 493.023 185.871 494.424C181.138 501.021 175.777 507.076 169.789 512.588C168.61 513.694 167.487 514.829 166.144 515.847C161.61 519.66 156.705 523.312 151.544 526.582C149.234 527.902 146.799 529.261 144.45 530.455C143.323 531.129 142.141 531.775 140.961 532.281C138.613 533.474 136.086 534.539 133.573 535.645L133.447 535.685C130.387 536.961 127.107 538.122 123.831 539.144L121.898 539.746C58.4641 558.322 -7.98163 522.696 -27.5011 459.474L-133 117.771L-19.3256 82.3332L67.3296 363.002C77.1933 394.95 111.073 412.951 142.957 403.011C144.763 402.448 146.489 401.771 148.075 401.092C149.674 400.455 151.303 399.763 152.824 398.873C153.751 398.446 154.792 397.937 155.68 397.383C156.975 396.656 158.076 395.898 159.333 395.045C160.082 394.488 160.97 393.934 161.677 393.391C163.983 391.611 166.751 390.286 169.776 389.343C185.652 384.532 202.412 393.473 207.299 409.3Z" fill="#092470"/>
</g>
</svg>
