<svg width="25" height="24" viewBox="0 0 25 24" fill="none" xmlns="http://www.w3.org/2000/svg">
<path d="M17.75 3.5H7.75C4.75 3.5 2.75 5 2.75 8.5V15.5C2.75 19 4.75 20.5 7.75 20.5H17.75C20.75 20.5 22.75 19 22.75 15.5V8.5C22.75 5 20.75 3.5 17.75 3.5ZM18.22 9.59L15.09 12.09C14.43 12.62 13.59 12.88 12.75 12.88C11.91 12.88 11.06 12.62 10.41 12.09L7.28 9.59C6.96 9.33 6.91 8.85 7.16 8.53C7.42 8.21 7.89 8.15 8.21 8.41L11.34 10.91C12.1 11.52 13.39 11.52 14.15 10.91L17.28 8.41C17.6 8.15 18.08 8.2 18.33 8.53C18.59 8.85 18.54 9.33 18.22 9.59Z" fill="#092470"/>
</svg>
