<svg width="48" height="49" viewBox="0 0 48 49" fill="none" xmlns="http://www.w3.org/2000/svg">
<path d="M23.5702 1.742C25.1037 -0.0362632 27.9363 0.220111 29.1242 2.24693C30.0013 3.74233 31.8594 4.34633 33.4485 3.65777C35.6037 2.71834 38.0403 4.17838 38.2343 6.52128C38.3758 8.24862 39.7878 9.59985 41.5204 9.66646C43.8674 9.75663 45.4324 12.1313 44.5889 14.3254C43.9677 15.9428 44.6511 17.7756 46.184 18.5867C48.2611 19.6889 48.6402 22.5042 46.9282 24.1129C45.6644 25.3005 45.4897 27.2451 46.5172 28.6443C47.911 30.5371 47.0294 33.2374 44.7904 33.949C43.1371 34.4715 42.1328 36.1482 42.4533 37.8514C42.8897 40.1616 40.9224 42.2147 38.5955 41.8789C36.8766 41.632 35.2482 42.7055 34.7984 44.3834C34.1889 46.6522 31.5251 47.6488 29.5758 46.3395C28.1357 45.3717 26.2004 45.6323 25.0676 46.9466C23.5341 48.7248 20.7015 48.4685 19.5137 46.4416C18.6365 44.9463 16.7784 44.3423 15.1893 45.0308C13.0341 45.9702 10.5975 44.5102 10.4035 42.1673C10.262 40.44 8.84998 39.0887 7.1174 39.0221C4.7704 38.932 3.20537 36.5573 4.04886 34.3632C4.67008 32.7458 3.98667 30.913 2.45377 30.1019C0.376711 28.9997 -0.00240698 26.1844 1.70959 24.5757C2.97335 23.3881 3.14809 21.4435 2.12064 20.0443C0.726795 18.1515 1.60841 15.4511 3.84745 14.7396C5.50069 14.2171 6.50498 12.5404 6.1845 10.8372C5.74811 8.52693 7.71538 6.47386 10.0423 6.80971C11.7612 7.0566 13.3896 5.9831 13.8394 4.30522C14.4489 2.03636 17.1127 1.03983 19.062 2.34909C20.5021 3.31689 22.4374 3.05628 23.5702 1.742Z" fill="#112975"/>
</svg>
